<svg width="1440" height="423" viewBox="0 0 1440 423" fill="none" xmlns="http://www.w3.org/2000/svg">
<path fill-rule="evenodd" clip-rule="evenodd" d="M1462.49 9.49528L1401.46 6.72193C1340.44 4.40094 1218.39 -0.241031 1096.53 7.78323C974.664 16.2599 852.984 37.4027 731.395 64.8787C609.812 92.8071 488.319 127.069 366.316 125.593C244.313 124.118 121.794 86.453 60.5375 67.8469L-0.71903 49.2407L0.953263 166.403L61.9321 165.558C122.911 164.712 244.869 163.021 366.826 161.33C488.784 159.639 610.741 157.948 732.699 156.257C854.657 154.565 976.614 152.874 1098.57 151.183C1220.53 149.492 1342.49 147.801 1403.47 146.955L1464.44 146.11L1462.49 9.49528Z" fill="#0099FF"/>
<rect opacity="0.99" x="-24" y="138.403" width="1471" height="360" fill="#0099FF"/>
</svg>
