<svg width="1467" height="166" viewBox="0 0 1467 166" fill="none" xmlns="http://www.w3.org/2000/svg">
<path fill-rule="evenodd" clip-rule="evenodd" d="M1.28246 142L23.9972 146.5L61.8486 152C122.439 155.134 244.521 169.571 365.617 163.072C486.709 156.117 607.766 143.859 728.73 117.752C849.69 91.1894 970.607 58.2425 1091.77 61.3192C1212.93 64.396 1332.31 88.9496 1393.01 108.5L1465.33 141L1465.34 24.9884L1394.37 25.0075C1333.8 25.0651 1212.66 25.1804 1091.52 25.2956C970.386 25.4108 849.248 25.5261 728.109 25.6413C606.971 25.7565 485.832 25.8718 364.694 25.987C243.555 26.1023 122.417 26.2175 61.8475 26.2751L1.27824 26.3327L1.28246 142Z" fill="#276CDC"/>
<path fill-rule="evenodd" clip-rule="evenodd" d="M1.39239 119L64.0035 127.575C124.5 131.904 236.548 148.887 357.422 140C478.292 130.486 547.935 127.575 698.949 100.689C810.514 80.8257 971.308 46.5856 1092.27 50.8568C1213.23 55.128 1343.81 73.8021 1404.46 100.689L1465.1 127.575L1465.1 1.06701L1394.27 1.06704C1333.8 1.12457 1212.87 1.23961 1091.94 1.35465C971.004 1.4697 850.071 1.58474 729.137 1.69978C608.204 1.81482 487.271 1.92987 366.337 2.04491C245.404 2.15995 124.471 2.275 64.0044 2.33252L1.39049 2.33256L1.39239 119Z" fill="#0099FF"/>
</svg>
