<svg width="38" height="36" viewBox="0 0 38 36" fill="none" xmlns="http://www.w3.org/2000/svg">
<path d="M11.0833 16.5V10.5C11.0833 8.51088 11.9174 6.60322 13.4021 5.1967C14.8867 3.79018 16.9004 3 19 3C21.0996 3 23.1133 3.79018 24.5979 5.1967C26.0826 6.60322 26.9167 8.51088 26.9167 10.5V16.5M7.91667 16.5H30.0833C31.8322 16.5 33.25 17.8431 33.25 19.5V30C33.25 31.6569 31.8322 33 30.0833 33H7.91667C6.16776 33 4.75 31.6569 4.75 30V19.5C4.75 17.8431 6.16776 16.5 7.91667 16.5Z" stroke="#757575" stroke-width="4" stroke-linecap="round" stroke-linejoin="round"/>
</svg>
