<svg width="43" height="43" viewBox="0 0 43 43" fill="none" xmlns="http://www.w3.org/2000/svg">
<g clip-path="url(#clip0_1_15783)">
<path d="M17.7375 25.2625C16.7819 24.3069 15.9085 23.3066 15.1172 22.2615C14.3259 21.2163 13.6017 20.1115 12.9448 18.9469C12.7955 19.3649 12.6984 19.7905 12.6536 20.2234C12.6089 20.6564 12.5865 21.0819 12.5865 21.5C12.5865 23.9785 13.4524 26.0837 15.1844 27.8156C16.9163 29.5476 19.0215 30.4135 21.5 30.4135C21.9181 30.4135 22.3436 30.3837 22.7766 30.324C23.2095 30.2642 23.6351 30.1747 24.0531 30.0552C22.8885 29.3983 21.7837 28.6741 20.7385 27.8828C19.6934 27.0915 18.6931 26.2181 17.7375 25.2625ZM20.2906 22.7542C21.8135 24.2771 23.5156 25.5835 25.3969 26.6734C27.2781 27.7634 29.2937 28.6069 31.4437 29.2042C30.2493 30.7271 28.7861 31.9141 27.0542 32.7651C25.3222 33.6161 23.4858 34.0417 21.5448 34.0417C18.051 34.0417 15.0873 32.8248 12.6536 30.3911C10.22 27.9575 9.00312 24.9937 9.00312 21.5C9.00312 19.559 9.42865 17.7226 10.2797 15.9906C11.1307 14.2587 12.3177 12.7955 13.8406 11.601C14.4378 13.751 15.2814 15.7667 16.3714 17.6479C17.4613 19.5292 18.7677 21.2312 20.2906 22.7542ZM33.2802 25.9792C32.683 25.8299 32.0932 25.6656 31.5109 25.4865C30.9286 25.3073 30.3538 25.0983 29.7865 24.8594C30.0253 24.3219 30.197 23.7769 30.3016 23.2245C30.4061 22.672 30.4583 22.0972 30.4583 21.5C30.4583 19.0215 29.5849 16.9089 27.838 15.162C26.0911 13.4151 23.9785 12.5417 21.5 12.5417C20.9028 12.5417 20.328 12.5939 19.7755 12.6984C19.2231 12.803 18.6781 12.9747 18.1406 13.2135C17.9017 12.6462 17.7002 12.0788 17.5359 11.5115C17.3717 10.9441 17.2149 10.3618 17.0656 9.76458C17.7823 9.49583 18.5139 9.29427 19.2604 9.1599C20.0069 9.02552 20.7684 8.95833 21.5448 8.95833C25.0385 8.95833 28.0023 10.1752 30.4359 12.6089C32.8696 15.0425 34.0865 18.0062 34.0865 21.5C34.0865 22.2764 34.0193 23.0378 33.8849 23.7844C33.7505 24.5309 33.549 25.2625 33.2802 25.9792ZM19.7083 5.375V0H23.2917V5.375H19.7083ZM19.7083 43V37.625H23.2917V43H19.7083ZM34.176 11.3771L31.6229 8.82396L35.4302 5.06146L37.9833 7.56979L34.176 11.3771ZM7.56979 37.9385L5.01667 35.4302L8.82396 31.6229L11.3771 34.176L7.56979 37.9385ZM37.625 23.2917V19.7083H43V23.2917H37.625ZM0 23.2917V19.7083H5.375V23.2917H0ZM35.4302 37.9833L31.6229 34.176L34.176 31.6229L37.9385 35.4302L35.4302 37.9833ZM8.82396 11.3771L5.06146 7.56979L7.56979 5.01667L11.3771 8.82396L8.82396 11.3771Z" fill="white"/>
</g>
<defs>
<clipPath id="clip0_1_15783">
<rect width="43" height="43" fill="white"/>
</clipPath>
</defs>
</svg>
