<svg width="412" height="503" viewBox="0 0 412 503" fill="none" xmlns="http://www.w3.org/2000/svg">
<path fill-rule="evenodd" clip-rule="evenodd" d="M412.004 5.50001L393.535 2.96698C377.504 1 342.116 0.947222 307.887 3.28064C273.661 5.74549 239.484 11.8903 205.333 19.875C171.184 27.9912 137.06 37.9473 102.793 37.5208C68.5264 37.0942 34.1153 26.1536 16.9106 20.7491L-0.410158 15.513L-0.410154 49.397L17.3006 49.1371C34.4276 48.8903 68.6817 48.3969 102.936 47.9034C137.19 47.41 171.444 46.9165 205.698 46.423C239.952 45.9296 274.206 45.4361 308.46 44.9427C342.714 44.4492 376.968 43.9557 394.095 43.709L412.007 43.5L412.004 5.50001Z" fill="#0099FF"/>
<path opacity="0.99" d="M-0.421875 41.5129H412V503H0L-0.421875 41.5129Z" fill="#0099FF"/>
</svg>
